# xmcd
#
# Track frame offsets:
#	150
#	9448
#	27644
#	40996
#	53112
#	64767
#	78279
#	91605
#	107620
#	117716
#	131252
#	142625
#	160317
#	174888
#	187970
#
# Disc length: 2656 seconds
#
# Revision: 0
# Processed by: cddbd v1.5.2PL0 Copyright (c) Steve Scherf et al.
# Submitted via: audiograbber 1.83.01
#
DISCID=b40a5e0f
DTITLE=Ursprung Buam - Ursprung Buam [CD2]
DYEAR=1900
DGENRE=
TTITLE0=Damenwahl hamma heit' - Ursprung Buam
TTITLE1=Heimat der Berge - Ursprung Buam
TTITLE2=I bin a kluana Trau Mi Nit - Ursprung Buam
TTITLE3='s eachte und 's leschte Mal - Ursprung Buam
TTITLE4=A Bisserl Tirol - Ursprung Buam
TTITLE5=Gwigg Boarischer - Ursprung Buam
TTITLE6=Der König von Tirol - Ursprung Buam
TTITLE7=I bin a Volksmusikant vom Zillertal - Ursprung Buam
TTITLE8=Zillertaler Aufgeigertanz - Ursprung Buam
TTITLE9=I geig' auf, daß die Fetz'n fliagn - Ursprung Buam
TTITLE10=G'rad A Bissal - Ursprung Buam
TTITLE11=Iatz miaßt's holt gia losn a Bois - Ursprung Buam
TTITLE12=Aufgeigt weacht im Zillertal - Ursprung Buam
TTITLE13=Wia der Blitz, grad a so - Ursprung Buam
TTITLE14=Zillerquell - Walzer - Ursprung Buam
EXTD=
EXTT0=
EXTT1=
EXTT2=
EXTT3=
EXTT4=
EXTT5=
EXTT6=
EXTT7=
EXTT8=
EXTT9=
EXTT10=
EXTT11=
EXTT12=
EXTT13=
EXTT14=
PLAYORDER=
